ffmpeg started on 2025-06-03 at 20:09:43
Report written to "D:\Convert\FFMetrics\reports\psnr_report-6.txt"
Log level: 32
Command line:
ffmpeg -hide_banner -nostdin -i "G:\\\xc0\xed\xe8\xec\xe5\\\xce\xed\xe3\xee\xe8\xed\xe3\xe8\\!_36_\xce\xf1\xe5\xed\xfc_2024\\DreamCast\\\xc1\xe0\xf8\xed\xff \xc1\xee\xe3\xe0\\\xd2\xc2-2\\[DC] Kami no Tou - Ouji no Kikan - 22_Telegram_HEVC.mkv" -i "G:\\\xc0\xed\xe8\xec\xe5\\\xce\xed\xe3\xee\xe8\xed\xe3\xe8\\!_36_\xce\xf1\xe5\xed\xfc_2024\\DreamCast\\\xc1\xe0\xf8\xed\xff \xc1\xee\xe3\xe0\\\xd2\xc2-2\\[DC] Kami no Tou - Ouji no Kikan - 22_Telegram.mp4" -lavfi "[0:v]settb=AVTB,setpts=PTS-STARTPTS,format=pix_fmts=yuv420p10,fps=24000/1001,scale=1920:1080:flags=bicubic[main];[1:v]settb=AVTB,setpts=PTS-STARTPTS,format=pix_fmts=yuv420p,fps=24000/1001,scale=1920:1080:flags=bicubic[ref];[main][ref]psnr=eof_action=endall:stats_file='D\\:/Convert/FFMetrics/logs/psnr_logfile-6.txt'" -f null -
Input #0, matroska,webm, from 'G:\Аниме\Онгоинги\!_36_Осень_2024\DreamCast\Башня Бога\ТВ-2\[DC] Kami no Tou - Ouji no Kikan - 22_Telegram_HEVC.mkv':
  Metadata:
    COMPATIBLE_BRANDS: isomiso2avc1mp41
    MAJOR_BRAND     : isom
    MINOR_VERSION   : 512
    ENCODER         : Lavf61.7.100
  Duration: 00:23:49.42, start: -0.021000, bitrate: 1676 kb/s
  Stream #0:0: Video: hevc (Main 10), yuv420p10le(tv, bt709, progressive), 1920x1080 [SAR 1:1 DAR 16:9], 23.98 fps, 23.98 tbr, 1k tbn (default)
      Metadata:
        HANDLER_NAME    : VideoHandler
        VENDOR_ID       : [0][0][0][0]
        ENCODER         : Lavc61.19.100 libx265
        BPS             : 1481158
        DURATION        : 00:23:47.592708333
        NUMBER_OF_FRAMES: 34228
        NUMBER_OF_BYTES : 264311189
        _STATISTICS_WRITING_APP: mkvpropedit v66.0.0 ('Josie') 64-bit
        _STATISTICS_WRITING_DATE_UTC: 2025-05-30 06:07:23
        _STATISTICS_TAGS: BPS DURATION NUMBER_OF_FRAMES NUMBER_OF_BYTES
  Stream #0:1: Audio: aac (LC), 48000 Hz, stereo, fltp (default)
      Metadata:
        HANDLER_NAME    : SoundHandler
        VENDOR_ID       : [0][0][0][0]
        ENCODER         : Lavc61.19.100 aac
        BPS             : 193631
        DURATION        : 00:23:49.418000000
        NUMBER_OF_FRAMES: 67005
        NUMBER_OF_BYTES : 34597549
        _STATISTICS_WRITING_APP: mkvpropedit v66.0.0 ('Josie') 64-bit
        _STATISTICS_WRITING_DATE_UTC: 2025-05-30 06:07:23
        _STATISTICS_TAGS: BPS DURATION NUMBER_OF_FRAMES NUMBER_OF_BYTES
Input #1, mov,mp4,m4a,3gp,3g2,mj2, from 'G:\Аниме\Онгоинги\!_36_Осень_2024\DreamCast\Башня Бога\ТВ-2\[DC] Kami no Tou - Ouji no Kikan - 22_Telegram.mp4':
  Metadata:
    major_brand     : isom
    minor_version   : 512
    compatible_brands: isomiso2avc1mp41
    encoder         : Lavf61.1.100
  Duration: 00:23:49.39, start: 0.000000, bitrate: 3809 kb/s
  Stream #1:0[0x1](und): Video: h264 (High) (avc1 / 0x31637661), yuv420p(tv, bt709, progressive), 1920x1080 [SAR 1:1 DAR 16:9], 3665 kb/s, 23.98 fps, 23.98 tbr, 24k tbn (default)
      Metadata:
        handler_name    : VideoHandler
        vendor_id       : [0][0][0][0]
        encoder         : Lavc61.3.100 h264_qsv
  Stream #1:1[0x2](und): Audio: aac (HE-AACv2) (mp4a / 0x6134706D), 48000 Hz, stereo, fltp, 144 kb/s (default)
      Metadata:
        handler_name    : SoundHandler
        vendor_id       : [0][0][0][0]
Stream mapping:
  Stream #0:0 (hevc) -> settb:default
  Stream #1:0 (h264) -> settb:default
  psnr:default -> Stream #0:0 (wrapped_avframe)
  Stream #0:1 -> #0:1 (aac (native) -> pcm_s16le (native))
Output #0, null, to 'pipe:':
  Metadata:
    COMPATIBLE_BRANDS: isomiso2avc1mp41
    MAJOR_BRAND     : isom
    MINOR_VERSION   : 512
    encoder         : Lavf61.7.100
  Stream #0:0: Video: wrapped_avframe, yuv420p10le(tv, bt709, progressive), 1920x1080 [SAR 1:1 DAR 16:9], q=2-31, 200 kb/s, 23.98 fps, 23.98 tbn
      Metadata:
        encoder         : Lavc61.19.100 wrapped_avframe
  Stream #0:1: Audio: pcm_s16le, 48000 Hz, stereo, s16, 1536 kb/s (default)
      Metadata:
        HANDLER_NAME    : SoundHandler
        VENDOR_ID       : [0][0][0][0]
        _STATISTICS_TAGS: BPS DURATION NUMBER_OF_FRAMES NUMBER_OF_BYTES
        BPS             : 193631
        DURATION        : 00:23:49.418000000
        NUMBER_OF_FRAMES: 67005
        NUMBER_OF_BYTES : 34597549
        _STATISTICS_WRITING_APP: mkvpropedit v66.0.0 ('Josie') 64-bit
        _STATISTICS_WRITING_DATE_UTC: 2025-05-30 06:07:23
        encoder         : Lavc61.19.100 pcm_s16le
frame=  170 fps=0.0 q=-0.0 size=N/A time=00:00:07.09 bitrate=N/A speed=13.6x    frame=  434 fps=422 q=-0.0 size=N/A time=00:00:18.10 bitrate=N/A speed=17.6x    frame=  654 fps=422 q=-0.0 size=N/A time=00:00:27.27 bitrate=N/A speed=17.6x    frame=  826 fps=401 q=-0.0 size=N/A time=00:00:34.45 bitrate=N/A speed=16.7x    frame= 1024 fps=397 q=-0.0 size=N/A time=00:00:42.70 bitrate=N/A speed=16.6x    frame= 1217 fps=392 q=-0.0 size=N/A time=00:00:50.75 bitrate=N/A speed=16.3x    frame= 1428 fps=395 q=-0.0 size=N/A time=00:00:59.55 bitrate=N/A speed=16.5x    frame= 1655 fps=400 q=-0.0 size=N/A time=00:01:09.02 bitrate=N/A speed=16.7x    frame= 1885 fps=406 q=-0.0 size=N/A time=00:01:18.62 bitrate=N/A speed=16.9x    frame= 2121 fps=411 q=-0.0 size=N/A time=00:01:28.46 bitrate=N/A speed=17.1x    frame= 2363 fps=417 q=-0.0 size=N/A time=00:01:38.55 bitrate=N/A speed=17.4x    frame= 2625 fps=424 q=-0.0 size=N/A time=00:01:49.48 bitrate=N/A speed=17.7x    frame= 2826 fps=421 q=-0.0 size=N/A time=00:01:57.86 bitrate=N/A speed=17.6x    frame= 3026 fps=419 q=-0.0 size=N/A time=00:02:06.20 bitrate=N/A speed=17.5x    frame= 3261 fps=422 q=-0.0 size=N/A time=00:02:16.01 bitrate=N/A speed=17.6x    frame= 3468 fps=420 q=-0.0 size=N/A time=00:02:24.64 bitrate=N/A speed=17.5x    frame= 3634 fps=415 q=-0.0 size=N/A time=00:02:31.56 bitrate=N/A speed=17.3x    frame= 3835 fps=413 q=-0.0 size=N/A time=00:02:39.95 bitrate=N/A speed=17.2x    frame= 4073 fps=416 q=-0.0 size=N/A time=00:02:49.87 bitrate=N/A speed=17.3x    frame= 4295 fps=416 q=-0.0 size=N/A time=00:02:59.13 bitrate=N/A speed=17.4x    frame= 4494 fps=415 q=-0.0 size=N/A time=00:03:07.43 bitrate=N/A speed=17.3x    frame= 4676 fps=412 q=-0.0 size=N/A time=00:03:15.02 bitrate=N/A speed=17.2x    frame= 4867 fps=410 q=-0.0 size=N/A time=00:03:22.99 bitrate=N/A speed=17.1x    frame= 5077 fps=410 q=-0.0 size=N/A time=00:03:31.75 bitrate=N/A speed=17.1x    frame= 5308 fps=412 q=-0.0 size=N/A time=00:03:41.38 bitrate=N/A speed=17.2x    frame= 5531 fps=412 q=-0.0 size=N/A time=00:03:50.68 bitrate=N/A speed=17.2x    frame= 5793 fps=416 q=-0.0 size=N/A time=00:04:01.61 bitrate=N/A speed=17.3x    frame= 6009 fps=416 q=-0.0 size=N/A time=00:04:10.62 bitrate=N/A speed=17.4x    frame= 6185 fps=413 q=-0.0 size=N/A time=00:04:17.96 bitrate=N/A speed=17.2x    frame= 6428 fps=415 q=-0.0 size=N/A time=00:04:28.10 bitrate=N/A speed=17.3x    frame= 6710 fps=419 q=-0.0 size=N/A time=00:04:39.86 bitrate=N/A speed=17.5x    frame= 6922 fps=419 q=-0.0 size=N/A time=00:04:48.70 bitrate=N/A speed=17.5x    frame= 7168 fps=421 q=-0.0 size=N/A time=00:04:58.96 bitrate=N/A speed=17.6x    frame= 7413 fps=423 q=-0.0 size=N/A time=00:05:09.18 bitrate=N/A speed=17.6x    frame= 7608 fps=421 q=-0.0 size=N/A time=00:05:17.31 bitrate=N/A speed=17.6x    frame= 7837 fps=422 q=-0.0 size=N/A time=00:05:26.86 bitrate=N/A speed=17.6x    frame= 8102 fps=425 q=-0.0 size=N/A time=00:05:37.92 bitrate=N/A speed=17.7x    frame= 8329 fps=425 q=-0.0 size=N/A time=00:05:47.38 bitrate=N/A speed=17.7x    frame= 8535 fps=424 q=-0.0 size=N/A time=00:05:55.98 bitrate=N/A speed=17.7x    frame= 8730 fps=423 q=-0.0 size=N/A time=00:06:04.11 bitrate=N/A speed=17.7x    frame= 8948 fps=423 q=-0.0 size=N/A time=00:06:13.20 bitrate=N/A speed=17.6x    frame= 9175 fps=424 q=-0.0 size=N/A time=00:06:22.67 bitrate=N/A speed=17.7x    frame= 9411 fps=424 q=-0.0 size=N/A time=00:06:32.51 bitrate=N/A speed=17.7x    frame= 9589 fps=423 q=-0.0 size=N/A time=00:06:39.94 bitrate=N/A speed=17.6x    frame= 9802 fps=422 q=-0.0 size=N/A time=00:06:48.82 bitrate=N/A speed=17.6x    frame=10073 fps=424 q=-0.0 size=N/A time=00:07:00.12 bitrate=N/A speed=17.7x    frame=10266 fps=424 q=-0.0 size=N/A time=00:07:08.17 bitrate=N/A speed=17.7x    frame=10510 fps=425 q=-0.0 size=N/A time=00:07:18.35 bitrate=N/A speed=17.7x    frame=10814 fps=428 q=-0.0 size=N/A time=00:07:31.03 bitrate=N/A speed=17.8x    frame=11060 fps=429 q=-0.0 size=N/A time=00:07:41.29 bitrate=N/A speed=17.9x    frame=11220 fps=427 q=-0.0 size=N/A time=00:07:47.96 bitrate=N/A speed=17.8x    frame=11383 fps=424 q=-0.0 size=N/A time=00:07:54.76 bitrate=N/A speed=17.7x    frame=11568 fps=423 q=-0.0 size=N/A time=00:08:02.48 bitrate=N/A speed=17.7x    frame=11836 fps=425 q=-0.0 size=N/A time=00:08:13.65 bitrate=N/A speed=17.7x    frame=12082 fps=426 q=-0.0 size=N/A time=00:08:23.92 bitrate=N/A speed=17.8x    frame=12369 fps=428 q=-0.0 size=N/A time=00:08:35.89 bitrate=N/A speed=17.9x    frame=12629 fps=430 q=-0.0 size=N/A time=00:08:46.73 bitrate=N/A speed=17.9x    frame=12773 fps=427 q=-0.0 size=N/A time=00:08:52.74 bitrate=N/A speed=17.8x    frame=12943 fps=425 q=-0.0 size=N/A time=00:08:59.83 bitrate=N/A speed=17.7x    frame=13214 fps=427 q=-0.0 size=N/A time=00:09:11.13 bitrate=N/A speed=17.8x    frame=13493 fps=429 q=-0.0 size=N/A time=00:09:22.77 bitrate=N/A speed=17.9x    frame=13696 fps=428 q=-0.0 size=N/A time=00:09:31.23 bitrate=N/A speed=17.9x    frame=13885 fps=427 q=-0.0 size=N/A time=00:09:39.12 bitrate=N/A speed=17.8x    frame=14088 fps=427 q=-0.0 size=N/A time=00:09:47.58 bitrate=N/A speed=17.8x    frame=14356 fps=428 q=-0.0 size=N/A time=00:09:58.76 bitrate=N/A speed=17.9x    frame=14611 fps=429 q=-0.0 size=N/A time=00:10:09.40 bitrate=N/A speed=17.9x    frame=14870 fps=430 q=-0.0 size=N/A time=00:10:20.20 bitrate=N/A speed=  18x    frame=15097 fps=431 q=-0.0 size=N/A time=00:10:29.67 bitrate=N/A speed=  18x    frame=15380 fps=432 q=-0.0 size=N/A time=00:10:41.47 bitrate=N/A speed=  18x    frame=15660 fps=434 q=-0.0 size=N/A time=00:10:53.15 bitrate=N/A speed=18.1x    frame=15940 fps=435 q=-0.0 size=N/A time=00:11:04.83 bitrate=N/A speed=18.2x    frame=16223 fps=437 q=-0.0 size=N/A time=00:11:16.63 bitrate=N/A speed=18.2x    frame=16511 fps=439 q=-0.0 size=N/A time=00:11:28.64 bitrate=N/A speed=18.3x    frame=16789 fps=440 q=-0.0 size=N/A time=00:11:40.24 bitrate=N/A speed=18.4x    frame=17075 fps=441 q=-0.0 size=N/A time=00:11:52.16 bitrate=N/A speed=18.4x    frame=17340 fps=442 q=-0.0 size=N/A time=00:12:03.22 bitrate=N/A speed=18.5x    frame=17573 fps=443 q=-0.0 size=N/A time=00:12:12.94 bitrate=N/A speed=18.5x    frame=17768 fps=442 q=-0.0 size=N/A time=00:12:21.07 bitrate=N/A speed=18.4x    frame=17995 fps=442 q=-0.0 size=N/A time=00:12:30.54 bitrate=N/A speed=18.4x    frame=18235 fps=442 q=-0.0 size=N/A time=00:12:40.55 bitrate=N/A speed=18.4x    frame=18497 fps=443 q=-0.0 size=N/A time=00:12:51.47 bitrate=N/A speed=18.5x    frame=18785 fps=444 q=-0.0 size=N/A time=00:13:03.49 bitrate=N/A speed=18.5x    frame=19062 fps=445 q=-0.0 size=N/A time=00:13:15.00 bitrate=N/A speed=18.6x    frame=19330 fps=446 q=-0.0 size=N/A time=00:13:26.22 bitrate=N/A speed=18.6x    frame=19583 fps=447 q=-0.0 size=N/A time=00:13:36.77 bitrate=N/A speed=18.6x    frame=19852 fps=448 q=-0.0 size=N/A time=00:13:47.99 bitrate=N/A speed=18.7x    frame=20092 fps=448 q=-0.0 size=N/A time=00:13:58.00 bitrate=N/A speed=18.7x    frame=20359 fps=449 q=-0.0 size=N/A time=00:14:09.13 bitrate=N/A speed=18.7x    frame=20604 fps=449 q=-0.0 size=N/A time=00:14:19.35 bitrate=N/A speed=18.7x    frame=20832 fps=449 q=-0.0 size=N/A time=00:14:28.86 bitrate=N/A speed=18.7x    frame=21113 fps=450 q=-0.0 size=N/A time=00:14:40.58 bitrate=N/A speed=18.8x    frame=21350 fps=450 q=-0.0 size=N/A time=00:14:50.47 bitrate=N/A speed=18.8x    frame=21523 fps=449 q=-0.0 size=N/A time=00:14:57.68 bitrate=N/A speed=18.7x    frame=21772 fps=449 q=-0.0 size=N/A time=00:15:08.07 bitrate=N/A speed=18.7x    frame=22021 fps=450 q=-0.0 size=N/A time=00:15:18.45 bitrate=N/A speed=18.8x    frame=22291 fps=450 q=-0.0 size=N/A time=00:15:29.72 bitrate=N/A speed=18.8x    frame=22543 fps=451 q=-0.0 size=N/A time=00:15:40.23 bitrate=N/A speed=18.8x    frame=22829 fps=452 q=-0.0 size=N/A time=00:15:52.15 bitrate=N/A speed=18.8x    frame=23014 fps=451 q=-0.0 size=N/A time=00:15:59.87 bitrate=N/A speed=18.8x    frame=23285 fps=452 q=-0.0 size=N/A time=00:16:11.17 bitrate=N/A speed=18.8x    frame=23533 fps=452 q=-0.0 size=N/A time=00:16:21.52 bitrate=N/A speed=18.8x    frame=23811 fps=453 q=-0.0 size=N/A time=00:16:33.11 bitrate=N/A speed=18.9x    frame=24077 fps=453 q=-0.0 size=N/A time=00:16:44.21 bitrate=N/A speed=18.9x    frame=24363 fps=454 q=-0.0 size=N/A time=00:16:56.14 bitrate=N/A speed=18.9x    frame=24646 fps=455 q=-0.0 size=N/A time=00:17:07.94 bitrate=N/A speed=  19x    frame=24930 fps=456 q=-0.0 size=N/A time=00:17:19.78 bitrate=N/A speed=  19x    frame=25205 fps=457 q=-0.0 size=N/A time=00:17:31.25 bitrate=N/A speed=  19x    frame=25491 fps=458 q=-0.0 size=N/A time=00:17:43.18 bitrate=N/A speed=19.1x    frame=25774 fps=458 q=-0.0 size=N/A time=00:17:54.99 bitrate=N/A speed=19.1x    frame=25966 fps=458 q=-0.0 size=N/A time=00:18:02.99 bitrate=N/A speed=19.1x    frame=26221 fps=458 q=-0.0 size=N/A time=00:18:13.63 bitrate=N/A speed=19.1x    frame=26485 fps=458 q=-0.0 size=N/A time=00:18:24.64 bitrate=N/A speed=19.1x    frame=26673 fps=458 q=-0.0 size=N/A time=00:18:32.48 bitrate=N/A speed=19.1x    frame=26941 fps=458 q=-0.0 size=N/A time=00:18:43.66 bitrate=N/A speed=19.1x    frame=27231 fps=459 q=-0.0 size=N/A time=00:18:55.75 bitrate=N/A speed=19.1x    frame=27485 fps=459 q=-0.0 size=N/A time=00:19:06.35 bitrate=N/A speed=19.2x    frame=27700 fps=459 q=-0.0 size=N/A time=00:19:15.32 bitrate=N/A speed=19.1x    frame=27933 fps=459 q=-0.0 size=N/A time=00:19:25.03 bitrate=N/A speed=19.1x    frame=28152 fps=459 q=-0.0 size=N/A time=00:19:34.17 bitrate=N/A speed=19.1x    frame=28434 fps=459 q=-0.0 size=N/A time=00:19:45.93 bitrate=N/A speed=19.2x    frame=28711 fps=460 q=-0.0 size=N/A time=00:19:57.48 bitrate=N/A speed=19.2x    frame=28978 fps=460 q=-0.0 size=N/A time=00:20:08.62 bitrate=N/A speed=19.2x    frame=29229 fps=461 q=-0.0 size=N/A time=00:20:19.09 bitrate=N/A speed=19.2x    frame=29472 fps=461 q=-0.0 size=N/A time=00:20:29.22 bitrate=N/A speed=19.2x    frame=29718 fps=461 q=-0.0 size=N/A time=00:20:39.48 bitrate=N/A speed=19.2x    frame=29948 fps=461 q=-0.0 size=N/A time=00:20:49.08 bitrate=N/A speed=19.2x    frame=30191 fps=461 q=-0.0 size=N/A time=00:20:59.21 bitrate=N/A speed=19.2x    frame=30461 fps=461 q=-0.0 size=N/A time=00:21:10.47 bitrate=N/A speed=19.2x    frame=30748 fps=462 q=-0.0 size=N/A time=00:21:22.44 bitrate=N/A speed=19.3x    frame=31026 fps=463 q=-0.0 size=N/A time=00:21:34.04 bitrate=N/A speed=19.3x    frame=31328 fps=464 q=-0.0 size=N/A time=00:21:46.63 bitrate=N/A speed=19.3x    frame=31594 fps=464 q=-0.0 size=N/A time=00:21:57.73 bitrate=N/A speed=19.4x    frame=31854 fps=464 q=-0.0 size=N/A time=00:22:08.57 bitrate=N/A speed=19.4x    frame=32084 fps=464 q=-0.0 size=N/A time=00:22:18.17 bitrate=N/A speed=19.4x    frame=32253 fps=463 q=-0.0 size=N/A time=00:22:25.21 bitrate=N/A speed=19.3x    frame=32402 fps=462 q=-0.0 size=N/A time=00:22:31.43 bitrate=N/A speed=19.3x    frame=32563 fps=461 q=-0.0 size=N/A time=00:22:38.14 bitrate=N/A speed=19.2x    frame=32710 fps=459 q=-0.0 size=N/A time=00:22:44.27 bitrate=N/A speed=19.2x    frame=32874 fps=458 q=-0.0 size=N/A time=00:22:51.11 bitrate=N/A speed=19.1x    frame=33043 fps=458 q=-0.0 size=N/A time=00:22:58.16 bitrate=N/A speed=19.1x    frame=33209 fps=457 q=-0.0 size=N/A time=00:23:05.09 bitrate=N/A speed=  19x    frame=33341 fps=455 q=-0.0 size=N/A time=00:23:10.59 bitrate=N/A speed=  19x    frame=33502 fps=454 q=-0.0 size=N/A time=00:23:17.31 bitrate=N/A speed=18.9x    frame=33675 fps=453 q=-0.0 size=N/A time=00:23:24.52 bitrate=N/A speed=18.9x    frame=33815 fps=452 q=-0.0 size=N/A time=00:23:30.36 bitrate=N/A speed=18.9x    frame=34007 fps=452 q=-0.0 size=N/A time=00:23:38.37 bitrate=N/A speed=18.8x    [Parsed_psnr_10 @ 00000208a2359fc0] PSNR y:48.211071 u:50.551069 v:50.414100 average:48.844606 min:38.722142 max:inf
[out#0/null @ 000002089ff05880] video:14707KiB audio:268020KiB subtitle:0KiB other streams:0KiB global headers:0KiB muxing overhead: unknown
frame=34228 fps=451 q=-0.0 Lsize=N/A time=00:23:47.59 bitrate=N/A speed=18.8x    
